<?xml version="1.0" encoding="utf-8"?>
<!-- Generator: Adobe Illustrator 25.3.1, SVG Export Plug-In . SVG Version: 6.00 Build 0)  -->
<svg version="1.1" id="Layer_1" xmlns="http://www.w3.org/2000/svg" xmlns:xlink="http://www.w3.org/1999/xlink" x="0px" y="0px"
	 viewBox="0 0 239.8 65" style="enable-background:new 0 0 239.8 65;" xml:space="preserve">
<style type="text/css">
	.st0{fill:#6E6E6E;}
	.st1{fill:#2C78C9;}
	.st2{fill:none;stroke:#6E6E6E;stroke-width:0.75;stroke-miterlimit:10;}
</style>
<g id="tx">
	<g>
		<path class="st0" d="M170.7,27.3h8.3v1.6h-3.2v9H174v-9h-3.3V27.3L170.7,27.3z"/>
		<path class="st0" d="M180.2,30.3h1.7V32c0.4-1.1,1.3-1.8,2.3-1.8c0.2,0,0.4,0,0.4,0.1V32c-0.1,0-0.3-0.1-0.4-0.1
			c-1.5-0.1-2.3,0.5-2.3,1.6v4.4h-1.8L180.2,30.3L180.2,30.3z"/>
		<path class="st0" d="M185.9,35.8c0-1.7,1.2-2.5,3.8-2.6h1.1v-0.5c0-0.8-0.5-1.3-1.5-1.3c-0.7,0-1.4,0.3-1.6,1.1h-1.5
			c0.1-1.6,1.4-2.4,3.2-2.4c2.2,0,3.1,0.9,3.1,2.4v5.3H191l-0.1-1.4c-0.6,1.1-1.4,1.5-2.5,1.5C186.9,38.1,185.9,37.3,185.9,35.8z
			 M190.8,35.4v-1.2h-0.9c-1.4,0-2.3,0.4-2.3,1.4c0,0.8,0.6,1.2,1.4,1.2C189.9,36.9,190.8,36.2,190.8,35.4z"/>
		<path class="st0" d="M194.8,30.3h1.8v1.1c0.4-0.6,1.1-1.2,2.3-1.2c1.4,0,2.7,0.8,2.7,2.7v5h-1.8v-4.8c0-1-0.6-1.5-1.5-1.5
			s-1.7,0.4-1.7,1.3v5h-1.8V30.3L194.8,30.3z"/>
		<path class="st0" d="M203.2,35.7h1.6c0.2,0.8,1,1.2,1.7,1.2c0.9,0,1.5-0.3,1.5-1c0-0.5-0.3-0.8-1-0.9l-1.4-0.3
			c-1.3-0.3-2.1-0.9-2.1-2.1c0-1.4,1-2.3,3.1-2.3c1.8,0,2.9,0.8,3,2.3h-1.5c-0.1-0.7-0.6-1.1-1.5-1.1s-1.4,0.3-1.4,1
			c0,0.5,0.4,0.7,1.2,0.9l1.4,0.3c1.6,0.4,1.9,1.4,1.9,2.1c0,1.5-1.2,2.3-3.1,2.3C204.9,38.1,203.5,37.4,203.2,35.7z"/>
		<path class="st0" d="M211.5,30.3h1.8v1.2c0.4-0.7,1.2-1.3,2.4-1.3c1.8,0,3,1.2,3,3.9c0,2.7-1.3,4-3.2,4c-1.2,0-1.9-0.7-2.3-1.4
			v3.6h-1.8L211.5,30.3L211.5,30.3z M217.1,34.1c0-1.6-0.7-2.6-1.9-2.6c-1.3,0-1.9,1.1-1.9,2.6c0,1.4,0.6,2.7,1.9,2.7
			C216.3,36.8,217.1,35.9,217.1,34.1z"/>
		<path class="st0" d="M220.3,34.2c0-2.4,1.4-4,3.6-4s3.6,1.5,3.6,4c0,2.3-1.3,3.9-3.6,3.9C221.7,38.1,220.3,36.7,220.3,34.2z
			 M225.8,34.1c0-1.4-0.5-2.6-1.8-2.6s-1.8,1.1-1.8,2.6c0,1.4,0.5,2.6,1.8,2.6C225.2,36.8,225.8,35.7,225.8,34.1z"/>
		<path class="st0" d="M229.4,30.3h1.7V32c0.4-1.1,1.3-1.8,2.3-1.8c0.2,0,0.4,0,0.4,0.1V32c-0.1,0-0.3-0.1-0.4-0.1
			c-1.5-0.1-2.3,0.5-2.3,1.6v4.4h-1.7V30.3L229.4,30.3z"/>
		<path class="st0" d="M238.1,31.6V36c0,0.7,0.2,0.8,0.8,0.8h0.9v1.1c-0.2,0.1-0.6,0.2-1.3,0.2c-1.8,0-2.3-0.8-2.3-2v-4.4H235v-1.3
			h1.3l0.5-2.3h1.3v2.3h1.7v1.3L238.1,31.6L238.1,31.6L238.1,31.6z"/>
		<path class="st0" d="M174.8,41.6h1.9l3.8,10.7h-1.8l-0.9-2.7h-4.1l-1,2.7h-1.8L174.8,41.6z M177.3,47.9l-1.6-4.7l-1.6,4.7H177.3z"
			/>
		<path class="st0" d="M181.2,48.4c0-2.4,1.1-3.9,3.1-3.9c1.3,0,2.1,0.7,2.4,1.3v-4.4h1.8v10.9h-1.3l-0.2-1.6
			c-0.2,0.7-0.9,1.7-2.5,1.7C182.4,52.4,181.2,50.9,181.2,48.4z M186.6,48.3c0-1.7-0.6-2.5-1.8-2.5c-1.1,0-1.9,0.7-1.9,2.5
			s0.7,2.7,1.8,2.7C186,51.1,186.6,50.3,186.6,48.3z"/>
		<path class="st0" d="M194.2,52.2h-1.4l-2.8-7.6h1.6l1.8,5.3h0.1l1.8-5.3h1.7L194.2,52.2z"/>
		<path class="st0" d="M200.4,43.3h-1.8v-1.7h1.8V43.3z M200.4,52.2h-1.7v-7.6h1.7V52.2z"/>
		<path class="st0" d="M202.3,49.9h1.6c0.2,0.8,1,1.2,1.7,1.2c0.9,0,1.5-0.3,1.5-1c0-0.5-0.3-0.8-1-0.9l-1.4-0.3
			c-1.3-0.3-2.1-0.9-2.1-2.1c0-1.4,1-2.3,3.1-2.3c1.8,0,2.9,0.8,3,2.3h-1.5c-0.1-0.7-0.6-1.1-1.5-1.1s-1.4,0.3-1.4,1
			c0,0.5,0.4,0.7,1.2,0.9l1.4,0.3c1.6,0.4,1.9,1.4,1.9,2.1c0,1.5-1.2,2.3-3.1,2.3C204,52.4,202.6,51.6,202.3,49.9z"/>
		<path class="st0" d="M210.2,48.4c0-2.4,1.4-4,3.6-4s3.6,1.5,3.6,4c0,2.3-1.3,3.9-3.6,3.9C211.7,52.4,210.2,50.9,210.2,48.4z
			 M215.7,48.4c0-1.4-0.5-2.6-1.8-2.6s-1.8,1.1-1.8,2.6c0,1.4,0.5,2.6,1.8,2.6C215.1,51,215.7,49.9,215.7,48.4z"/>
		<path class="st0" d="M219.4,44.6h1.7v1.7c0.4-1.1,1.3-1.8,2.3-1.8c0.2,0,0.4,0,0.4,0.1v1.7c-0.1,0-0.3-0.1-0.4-0.1
			c-1.5-0.1-2.3,0.5-2.3,1.6v4.4h-1.8L219.4,44.6L219.4,44.6z"/>
		<path class="st0" d="M225.2,49.9h1.6c0.2,0.8,1,1.2,1.7,1.2c0.9,0,1.5-0.3,1.5-1c0-0.5-0.3-0.8-1-0.9l-1.4-0.3
			c-1.3-0.3-2.1-0.9-2.1-2.1c0-1.4,1-2.3,3.1-2.3c1.8,0,2.9,0.8,3,2.3h-1.5c-0.1-0.7-0.6-1.1-1.5-1.1s-1.4,0.3-1.4,1
			c0,0.5,0.4,0.7,1.2,0.9l1.4,0.3c1.6,0.4,1.9,1.4,1.9,2.1c0,1.5-1.2,2.3-3.1,2.3C226.9,52.4,225.4,51.6,225.2,49.9z"/>
	</g>
</g>
<g id="logo">
	<path class="st1" d="M25.8,20.8L9.1,37.6L9.4,0L0,5.5v54.4h9.4L9.2,49.2l17.5-17.7l10.5-10.7H25.8L25.8,20.8z"/>
	<path class="st1" d="M95.1,28c-2.1,0-6.6,0.8-9.3,4.3v27.6h-9.4V20.8h9.1v4.6c1.4-1.8,6.1-5.5,12.3-5.5c3,0,5.7,0.7,7.7,1.8
		s3.9,3,5,5.2c1.4-2.1,5.9-6.8,13.9-6.8c2.5,0,4.6,0.5,6.4,1.1c1.8,0.7,3.4,1.8,4.8,3.2c1.4,1.4,2.3,3,3,5c0.7,2.1,0.9,4.1,0.9,6.4
		v24.1h-9.3V36.7c0-2.5-0.5-8.7-8.4-8.7c-2.4,0-6.5,0.8-9,4.3c0,0.5,0,27.3,0,27.3h-9.3v-23C103.5,34.2,102.7,28,95.1,28z"/>
	<path class="st1" d="M40.8,48.3c0.1,0.1,4.5,3.1,9.3,4.5c4.4,1.3,7.4,0.6,9.4-0.7c2-1.3,2-4,0.2-5.4c-0.9-0.7-1.9-1.1-2.9-1.5
		c-2.5-0.9-5-1.7-7.5-2.7c-3.8-1.5-8.6-3.9-8.5-10.9c0.3-5.3,3.5-11.4,13.5-11.7c7.3-0.2,12.7,3.2,12.7,3.2v8.7c0,0-2.3-2.4-6.6-3.8
		c-6.4-1.8-10.5-0.3-11.1,2.2c-0.7,3.1,2.4,4.2,2.9,4.4c2.5,0.9,10.2,3.8,11.6,4.4c2.5,1.2,4.5,3.2,5.5,5.9c1.8,5-0.2,9.9-4.3,12.8
		c-7.4,5-18.2,2.3-23.6-0.6c-0.1-0.1-0.6-0.3-0.6-0.3S40.8,48.4,40.8,48.3z"/>
	<path class="st1" d="M39.2,59.9H27.1L18,49.2l6.2-6.2L39.2,59.9z"/>
</g>
<g id="line">
	<line class="st2" x1="155.5" y1="15.2" x2="155.4" y2="65"/>
</g>
</svg>
